<mxfile host="app.diagrams.net" modified="2021-03-13T23:29:17.318Z" agent="5.0 (Windows NT 10.0; Win64; x64) AppleWebKit/537.36 (KHTML, like Gecko) Chrome/89.0.4389.82 Safari/537.36 Edg/89.0.774.50" etag="sV69gNyygiWD1_Y9DXS-" version="14.4.8" type="github">
  <diagram id="C5RBs43oDa-KdzZeNtuy" name="Page-1">
    <mxGraphModel dx="782" dy="437" grid="0" gridSize="12" guides="1" tooltips="1" connect="1" arrows="1" fold="1" page="1" pageScale="1" pageWidth="827" pageHeight="1169" math="0" shadow="0">
      <root>
        <mxCell id="WIyWlLk6GJQsqaUBKTNV-0" />
        <mxCell id="WIyWlLk6GJQsqaUBKTNV-1" parent="WIyWlLk6GJQsqaUBKTNV-0" />
        <mxCell id="WIyWlLk6GJQsqaUBKTNV-3" value="&lt;b&gt;1. Data&lt;/b&gt;" style="rounded=1;whiteSpace=wrap;html=1;fontSize=12;glass=0;strokeWidth=2;shadow=0;fillColor=#dae8fc;strokeColor=#6c8ebf;gradientColor=#ffffff;opacity=50;" parent="WIyWlLk6GJQsqaUBKTNV-1" vertex="1">
          <mxGeometry x="167" y="30" width="130" height="30" as="geometry" />
        </mxCell>
        <mxCell id="yZnv350h_r2e5GjBCLk6-0" value="Filter the bars with a CUSUM volatility filter. Rationale: we sample the bars where structural breaks occured. That is where traders get trapped and they provide the best learning samples for a model" style="text;html=1;strokeColor=#82b366;fillColor=#d5e8d4;align=center;verticalAlign=middle;whiteSpace=wrap;rounded=0;opacity=70;" parent="WIyWlLk6GJQsqaUBKTNV-1" vertex="1">
          <mxGeometry x="347" y="147" width="380" height="41" as="geometry" />
        </mxCell>
        <mxCell id="yZnv350h_r2e5GjBCLk6-1" value="Import dollar/tick/vol bars. &lt;br&gt;Rationale: better statistical properties&amp;nbsp; than time bars.&lt;br&gt;Data Format: matrix with OHLC columns" style="text;html=1;strokeColor=#82b366;fillColor=#d5e8d4;align=left;verticalAlign=middle;whiteSpace=wrap;rounded=0;opacity=60;" parent="WIyWlLk6GJQsqaUBKTNV-1" vertex="1">
          <mxGeometry x="337" y="30" width="298" height="46" as="geometry" />
        </mxCell>
        <mxCell id="yZnv350h_r2e5GjBCLk6-3" value="&lt;b&gt;2. Sample &quot;significant Bars&quot;&lt;/b&gt;" style="rounded=1;whiteSpace=wrap;html=1;fontSize=12;glass=0;strokeWidth=2;shadow=0;fillColor=#dae8fc;strokeColor=#6c8ebf;gradientColor=#ffffff;opacity=50;" parent="WIyWlLk6GJQsqaUBKTNV-1" vertex="1">
          <mxGeometry x="142" y="145" width="180" height="30" as="geometry" />
        </mxCell>
        <mxCell id="yZnv350h_r2e5GjBCLk6-6" value="&lt;font size=&quot;1&quot;&gt;&lt;b style=&quot;font-size: 11px&quot;&gt;Do we have a model for the side?&lt;/b&gt;&lt;/font&gt;" style="rhombus;whiteSpace=wrap;html=1;strokeWidth=2;opacity=70;fillColor=#ffe6cc;strokeColor=#d79b00;" parent="WIyWlLk6GJQsqaUBKTNV-1" vertex="1">
          <mxGeometry x="264" y="256" width="210" height="90" as="geometry" />
        </mxCell>
        <mxCell id="yZnv350h_r2e5GjBCLk6-8" value="" style="rounded=0;html=1;jettySize=auto;orthogonalLoop=1;fontSize=11;endArrow=classic;endFill=1;endSize=8;strokeWidth=1;shadow=0;labelBackgroundColor=none;edgeStyle=orthogonalEdgeStyle;exitX=0.55;exitY=1.033;exitDx=0;exitDy=0;exitPerimeter=0;" parent="WIyWlLk6GJQsqaUBKTNV-1" source="yZnv350h_r2e5GjBCLk6-3" edge="1">
          <mxGeometry relative="1" as="geometry">
            <mxPoint x="369" y="256" as="targetPoint" />
            <mxPoint x="240" y="240" as="sourcePoint" />
            <Array as="points">
              <mxPoint x="241" y="218" />
              <mxPoint x="369" y="218" />
            </Array>
          </mxGeometry>
        </mxCell>
        <mxCell id="yZnv350h_r2e5GjBCLk6-12" value="" style="rounded=0;html=1;jettySize=auto;orthogonalLoop=1;fontSize=11;endArrow=classic;endFill=1;endSize=8;strokeWidth=1;shadow=0;labelBackgroundColor=none;edgeStyle=orthogonalEdgeStyle;exitX=1;exitY=0.5;exitDx=0;exitDy=0;entryX=0.5;entryY=0;entryDx=0;entryDy=0;" parent="WIyWlLk6GJQsqaUBKTNV-1" source="yZnv350h_r2e5GjBCLk6-6" target="yZnv350h_r2e5GjBCLk6-17" edge="1">
          <mxGeometry relative="1" as="geometry">
            <mxPoint x="628" y="425" as="targetPoint" />
            <mxPoint x="477" y="380" as="sourcePoint" />
            <Array as="points">
              <mxPoint x="628" y="301" />
            </Array>
          </mxGeometry>
        </mxCell>
        <mxCell id="yZnv350h_r2e5GjBCLk6-13" value="&lt;b&gt;Yes&lt;/b&gt;" style="text;html=1;strokeColor=none;fillColor=none;align=center;verticalAlign=middle;whiteSpace=wrap;rounded=0;opacity=70;" parent="WIyWlLk6GJQsqaUBKTNV-1" vertex="1">
          <mxGeometry x="153" y="276" width="40" height="20" as="geometry" />
        </mxCell>
        <mxCell id="yZnv350h_r2e5GjBCLk6-14" value="&lt;b&gt;No&lt;/b&gt;" style="text;html=1;align=center;verticalAlign=middle;resizable=0;points=[];autosize=1;" parent="WIyWlLk6GJQsqaUBKTNV-1" vertex="1">
          <mxGeometry x="526" y="276" width="26" height="18" as="geometry" />
        </mxCell>
        <mxCell id="yZnv350h_r2e5GjBCLk6-16" value="&lt;b&gt;Label each bar with the direction predicted by primary model. 1 for long / -1 for short&lt;/b&gt;" style="rounded=1;whiteSpace=wrap;html=1;fontSize=12;glass=0;strokeWidth=2;shadow=0;" parent="WIyWlLk6GJQsqaUBKTNV-1" vertex="1">
          <mxGeometry x="31" y="548.5" width="256" height="58" as="geometry" />
        </mxCell>
        <mxCell id="yZnv350h_r2e5GjBCLk6-17" value="&lt;b&gt;Use Triple Barrier with symm. barriers to learn side, i.e. give label to each bar. (1 if upper bound was reached first / -1 vice versa)&lt;/b&gt;" style="rounded=1;whiteSpace=wrap;html=1;fontSize=12;glass=0;strokeWidth=2;shadow=0;" parent="WIyWlLk6GJQsqaUBKTNV-1" vertex="1">
          <mxGeometry x="482" y="338" width="294" height="55" as="geometry" />
        </mxCell>
        <mxCell id="yZnv350h_r2e5GjBCLk6-19" style="edgeStyle=orthogonalEdgeStyle;rounded=0;orthogonalLoop=1;jettySize=auto;html=1;exitX=0.5;exitY=1;exitDx=0;exitDy=0;endArrow=classic;endFill=1;strokeColor=#000000;strokeWidth=1;" parent="WIyWlLk6GJQsqaUBKTNV-1" source="yZnv350h_r2e5GjBCLk6-6" target="yZnv350h_r2e5GjBCLk6-6" edge="1">
          <mxGeometry relative="1" as="geometry" />
        </mxCell>
        <mxCell id="yZnv350h_r2e5GjBCLk6-20" value="" style="rounded=1;whiteSpace=wrap;html=1;strokeWidth=3;opacity=30;strokeColor=#6c8ebf;fillColor=#dae8fc;" parent="WIyWlLk6GJQsqaUBKTNV-1" vertex="1">
          <mxGeometry x="9" y="531" width="811" height="97" as="geometry" />
        </mxCell>
        <mxCell id="yZnv350h_r2e5GjBCLk6-22" value="&lt;b&gt;3. Creating &quot;directional&quot; labels&lt;/b&gt;" style="text;html=1;strokeColor=none;fillColor=none;align=center;verticalAlign=middle;whiteSpace=wrap;rounded=0;opacity=30;" parent="WIyWlLk6GJQsqaUBKTNV-1" vertex="1">
          <mxGeometry x="254" y="548.5" width="260" height="20" as="geometry" />
        </mxCell>
        <mxCell id="yZnv350h_r2e5GjBCLk6-29" value="&lt;b&gt;5. Meta Labeling&lt;/b&gt;" style="rounded=1;whiteSpace=wrap;html=1;fontSize=12;glass=0;strokeWidth=2;shadow=0;fillColor=#dae8fc;strokeColor=#6c8ebf;gradientColor=#ffffff;opacity=50;" parent="WIyWlLk6GJQsqaUBKTNV-1" vertex="1">
          <mxGeometry x="23" y="829" width="190" height="40" as="geometry" />
        </mxCell>
        <mxCell id="yZnv350h_r2e5GjBCLk6-33" value="" style="endArrow=classic;html=1;strokeColor=#000000;strokeWidth=1;entryX=0.5;entryY=0;entryDx=0;entryDy=0;exitX=0.5;exitY=1;exitDx=0;exitDy=0;" parent="WIyWlLk6GJQsqaUBKTNV-1" source="yZnv350h_r2e5GjBCLk6-17" target="yZnv350h_r2e5GjBCLk6-34" edge="1">
          <mxGeometry width="50" height="50" relative="1" as="geometry">
            <mxPoint x="626" y="484" as="sourcePoint" />
            <mxPoint x="626" y="530" as="targetPoint" />
          </mxGeometry>
        </mxCell>
        <mxCell id="yZnv350h_r2e5GjBCLk6-34" value="&lt;b&gt;Fit ML model on a set of features that temporally align with the bars (careful w. look ahead bias) and the triple barrier labels from prev. step.&lt;/b&gt;" style="rounded=1;whiteSpace=wrap;html=1;strokeWidth=2;gradientColor=#ffffff;fillColor=none;" parent="WIyWlLk6GJQsqaUBKTNV-1" vertex="1">
          <mxGeometry x="480" y="463" width="299" height="53" as="geometry" />
        </mxCell>
        <mxCell id="yZnv350h_r2e5GjBCLk6-36" value="Fit model for learning side" style="text;html=1;strokeColor=#82b366;fillColor=#d5e8d4;align=left;verticalAlign=middle;whiteSpace=wrap;rounded=0;opacity=60;" parent="WIyWlLk6GJQsqaUBKTNV-1" vertex="1">
          <mxGeometry x="640" y="407" width="151" height="32" as="geometry" />
        </mxCell>
        <mxCell id="yZnv350h_r2e5GjBCLk6-37" value="" style="endArrow=classic;html=1;strokeColor=#000000;strokeWidth=1;entryX=0.5;entryY=0;entryDx=0;entryDy=0;" parent="WIyWlLk6GJQsqaUBKTNV-1" target="yZnv350h_r2e5GjBCLk6-40" edge="1">
          <mxGeometry width="50" height="50" relative="1" as="geometry">
            <mxPoint x="641" y="517" as="sourcePoint" />
            <mxPoint x="625.79" y="665" as="targetPoint" />
          </mxGeometry>
        </mxCell>
        <mxCell id="yZnv350h_r2e5GjBCLk6-40" value="&lt;b&gt;Use model on new data set/ new bars (if available) or on test set/bars to predict direction.&amp;nbsp;&lt;/b&gt;&lt;b&gt;Label each bar from the test set with the direction predicted by primary model. 1 for long / -1 for short&lt;/b&gt;&lt;b&gt;&lt;br&gt;&lt;br&gt;&lt;/b&gt;" style="rounded=1;whiteSpace=wrap;html=1;strokeWidth=2;gradientColor=#ffffff;fillColor=none;" parent="WIyWlLk6GJQsqaUBKTNV-1" vertex="1">
          <mxGeometry x="486" y="540" width="309" height="79" as="geometry" />
        </mxCell>
        <mxCell id="yZnv350h_r2e5GjBCLk6-52" value="" style="endArrow=classic;html=1;strokeColor=#000000;strokeWidth=1;exitX=0.177;exitY=1.038;exitDx=0;exitDy=0;exitPerimeter=0;entryX=0.5;entryY=0;entryDx=0;entryDy=0;" parent="WIyWlLk6GJQsqaUBKTNV-1" source="yZnv350h_r2e5GjBCLk6-60" target="yZnv350h_r2e5GjBCLk6-29" edge="1">
          <mxGeometry width="50" height="50" relative="1" as="geometry">
            <mxPoint x="87" y="924" as="sourcePoint" />
            <mxPoint x="87" y="1026" as="targetPoint" />
          </mxGeometry>
        </mxCell>
        <mxCell id="yZnv350h_r2e5GjBCLk6-54" value="&lt;div style=&quot;text-align: left&quot;&gt;&lt;span&gt;So up to now we have:&lt;/span&gt;&lt;ul&gt;&lt;li&gt;a matrix &lt;b&gt;X&amp;nbsp;&lt;/b&gt;where each row represents a dollar/tick/vol bar&amp;nbsp;&lt;/li&gt;&lt;li&gt;a label vector &lt;b&gt;y_pred&amp;nbsp;&lt;/b&gt;&amp;nbsp;with a directional label for each bar&amp;nbsp;(1 if primary model predicts upper bound&amp;nbsp;to be touched first (long) and -1 for the lower bound)&lt;/li&gt;&lt;li&gt;a meta label vector &lt;b&gt;y_outcome &lt;/b&gt;with 1 if prediction of primary model was correct and 0 otw.&lt;/li&gt;&lt;/ul&gt;&lt;br&gt;&lt;/div&gt;" style="text;html=1;strokeColor=#82b366;fillColor=#d5e8d4;align=center;verticalAlign=middle;whiteSpace=wrap;rounded=0;opacity=70;" parent="WIyWlLk6GJQsqaUBKTNV-1" vertex="1">
          <mxGeometry x="242" y="798" width="555" height="109" as="geometry" />
        </mxCell>
        <mxCell id="yZnv350h_r2e5GjBCLk6-58" value="" style="endArrow=classic;html=1;strokeColor=#000000;strokeWidth=1;exitX=0.367;exitY=1;exitDx=0;exitDy=0;exitPerimeter=0;" parent="WIyWlLk6GJQsqaUBKTNV-1" source="yZnv350h_r2e5GjBCLk6-16" edge="1">
          <mxGeometry width="50" height="50" relative="1" as="geometry">
            <mxPoint x="102" y="788" as="sourcePoint" />
            <mxPoint x="338" y="696" as="targetPoint" />
            <Array as="points">
              <mxPoint x="338" y="650" />
            </Array>
          </mxGeometry>
        </mxCell>
        <mxCell id="yZnv350h_r2e5GjBCLk6-59" value="" style="endArrow=classic;html=1;strokeColor=#000000;strokeWidth=1;exitX=0.5;exitY=1;exitDx=0;exitDy=0;" parent="WIyWlLk6GJQsqaUBKTNV-1" source="yZnv350h_r2e5GjBCLk6-40" edge="1">
          <mxGeometry width="50" height="50" relative="1" as="geometry">
            <mxPoint x="624" y="786" as="sourcePoint" />
            <mxPoint x="405" y="695" as="targetPoint" />
            <Array as="points">
              <mxPoint x="405" y="653" />
            </Array>
          </mxGeometry>
        </mxCell>
        <mxCell id="yZnv350h_r2e5GjBCLk6-60" value="&lt;b&gt;4. Use triple barrier again (with possibly asymm. barriers) to check the outcomes of the directional predictions&lt;/b&gt;" style="rounded=1;whiteSpace=wrap;html=1;strokeWidth=2;fillColor=#dae8fc;strokeColor=#6c8ebf;gradientColor=#ffffff;opacity=30;" parent="WIyWlLk6GJQsqaUBKTNV-1" vertex="1">
          <mxGeometry x="180.5" y="697" width="401" height="53" as="geometry" />
        </mxCell>
        <mxCell id="yZnv350h_r2e5GjBCLk6-62" value="" style="endArrow=classic;html=1;strokeColor=#000000;strokeWidth=1;exitX=0.5;exitY=1;exitDx=0;exitDy=0;entryX=0.5;entryY=0;entryDx=0;entryDy=0;" parent="WIyWlLk6GJQsqaUBKTNV-1" source="yZnv350h_r2e5GjBCLk6-29" target="yZnv350h_r2e5GjBCLk6-63" edge="1">
          <mxGeometry width="50" height="50" relative="1" as="geometry">
            <mxPoint x="204.97699999999986" y="1025.0040000000001" as="sourcePoint" />
            <mxPoint x="103" y="1070" as="targetPoint" />
          </mxGeometry>
        </mxCell>
        <mxCell id="yZnv350h_r2e5GjBCLk6-63" value="&lt;b&gt;6. Fit secondary model&lt;/b&gt;" style="rounded=1;whiteSpace=wrap;html=1;fontSize=12;glass=0;strokeWidth=2;shadow=0;fillColor=#dae8fc;strokeColor=#6c8ebf;gradientColor=#ffffff;opacity=50;" parent="WIyWlLk6GJQsqaUBKTNV-1" vertex="1">
          <mxGeometry x="23" y="945" width="190" height="40" as="geometry" />
        </mxCell>
        <mxCell id="yZnv350h_r2e5GjBCLk6-65" value="&lt;div style=&quot;text-align: left&quot;&gt;Now we fit a secondary model on a &lt;b&gt;new &lt;/b&gt;set of features (which temporally align with the bars - careful for look ahead bias) and the &lt;b&gt;meta labels&amp;nbsp; in order to learn the size&lt;/b&gt;&lt;/div&gt;" style="text;html=1;strokeColor=#82b366;fillColor=#d5e8d4;align=center;verticalAlign=middle;whiteSpace=wrap;rounded=0;opacity=70;" parent="WIyWlLk6GJQsqaUBKTNV-1" vertex="1">
          <mxGeometry x="240.5" y="945" width="558" height="48" as="geometry" />
        </mxCell>
        <mxCell id="yZnv350h_r2e5GjBCLk6-66" value="" style="endArrow=classic;html=1;strokeColor=#000000;strokeWidth=1;entryX=0.5;entryY=0;entryDx=0;entryDy=0;exitX=0.5;exitY=1;exitDx=0;exitDy=0;" parent="WIyWlLk6GJQsqaUBKTNV-1" source="WIyWlLk6GJQsqaUBKTNV-3" target="yZnv350h_r2e5GjBCLk6-3" edge="1">
          <mxGeometry width="50" height="50" relative="1" as="geometry">
            <mxPoint x="239" y="66" as="sourcePoint" />
            <mxPoint x="178" y="104" as="targetPoint" />
          </mxGeometry>
        </mxCell>
        <mxCell id="yZnv350h_r2e5GjBCLk6-70" value="" style="endArrow=classic;html=1;strokeColor=#000000;strokeWidth=1;exitX=0;exitY=0.5;exitDx=0;exitDy=0;entryX=0.25;entryY=0;entryDx=0;entryDy=0;" parent="WIyWlLk6GJQsqaUBKTNV-1" source="yZnv350h_r2e5GjBCLk6-6" target="yZnv350h_r2e5GjBCLk6-16" edge="1">
          <mxGeometry width="50" height="50" relative="1" as="geometry">
            <mxPoint x="178" y="318" as="sourcePoint" />
            <mxPoint x="89" y="517" as="targetPoint" />
            <Array as="points">
              <mxPoint x="95" y="301" />
            </Array>
          </mxGeometry>
        </mxCell>
        <mxCell id="yZnv350h_r2e5GjBCLk6-73" value="&lt;b&gt;De Prado - Big Picture&lt;/b&gt;" style="text;html=1;align=center;verticalAlign=middle;resizable=0;points=[];autosize=1;" parent="WIyWlLk6GJQsqaUBKTNV-1" vertex="1">
          <mxGeometry x="10" y="8" width="137" height="18" as="geometry" />
        </mxCell>
        <mxCell id="yZnv350h_r2e5GjBCLk6-74" value="Alex - Research" style="text;html=1;strokeColor=none;fillColor=none;align=center;verticalAlign=middle;whiteSpace=wrap;rounded=0;opacity=30;" parent="WIyWlLk6GJQsqaUBKTNV-1" vertex="1">
          <mxGeometry x="699" y="7" width="121" height="20" as="geometry" />
        </mxCell>
        <mxCell id="yZnv350h_r2e5GjBCLk6-75" value="&lt;b&gt;&lt;font color=&quot;#ff0080&quot;&gt;(*)&amp;nbsp;&lt;/font&gt;&lt;/b&gt;&lt;b&gt;&lt;font color=&quot;#ff0080&quot;&gt;(**)&amp;nbsp;&lt;/font&gt;&lt;/b&gt;&lt;b&gt;&lt;font color=&quot;#ff0080&quot;&gt;(***)&lt;/font&gt;&lt;/b&gt;" style="text;html=1;strokeColor=none;fillColor=none;align=center;verticalAlign=middle;whiteSpace=wrap;rounded=0;opacity=30;" parent="WIyWlLk6GJQsqaUBKTNV-1" vertex="1">
          <mxGeometry x="722" y="442" width="40" height="20" as="geometry" />
        </mxCell>
        <mxCell id="yZnv350h_r2e5GjBCLk6-78" value="Technical concepts presented in AFML" style="text;html=1;align=center;verticalAlign=middle;resizable=0;points=[];autosize=1;" parent="WIyWlLk6GJQsqaUBKTNV-1" vertex="1">
          <mxGeometry x="526" y="1045" width="216" height="18" as="geometry" />
        </mxCell>
        <mxCell id="yZnv350h_r2e5GjBCLk6-79" value="&lt;font color=&quot;#ff0080&quot;&gt;(*) &lt;/font&gt;fractionally differentiated features" style="text;html=1;align=center;verticalAlign=middle;resizable=0;points=[];autosize=1;" parent="WIyWlLk6GJQsqaUBKTNV-1" vertex="1">
          <mxGeometry x="524" y="1068" width="203" height="18" as="geometry" />
        </mxCell>
        <mxCell id="yZnv350h_r2e5GjBCLk6-80" value="&lt;font color=&quot;#ff0080&quot;&gt;(**)&lt;/font&gt; Purged and embargoed CV" style="text;html=1;align=center;verticalAlign=middle;resizable=0;points=[];autosize=1;" parent="WIyWlLk6GJQsqaUBKTNV-1" vertex="1">
          <mxGeometry x="522" y="1092" width="177" height="18" as="geometry" />
        </mxCell>
        <mxCell id="yZnv350h_r2e5GjBCLk6-81" value="&lt;font color=&quot;#ff0080&quot;&gt;(***)&lt;/font&gt; Feature selection via MDA, SHAP or LIME" style="text;html=1;align=center;verticalAlign=middle;resizable=0;points=[];autosize=1;" parent="WIyWlLk6GJQsqaUBKTNV-1" vertex="1">
          <mxGeometry x="522" y="1116" width="261" height="18" as="geometry" />
        </mxCell>
        <mxCell id="yZnv350h_r2e5GjBCLk6-86" value="&lt;b style=&quot;color: rgb(0, 0, 0); font-family: helvetica; font-size: 12px; font-style: normal; letter-spacing: normal; text-align: center; text-indent: 0px; text-transform: none; word-spacing: 0px; background-color: rgb(248, 249, 250);&quot;&gt;&lt;font color=&quot;#ff0080&quot;&gt;(*)&amp;nbsp;&lt;/font&gt;&lt;/b&gt;&lt;b style=&quot;color: rgb(0, 0, 0); font-family: helvetica; font-size: 12px; font-style: normal; letter-spacing: normal; text-align: center; text-indent: 0px; text-transform: none; word-spacing: 0px; background-color: rgb(248, 249, 250);&quot;&gt;&lt;font color=&quot;#ff0080&quot;&gt;(**)&amp;nbsp;&lt;/font&gt;&lt;/b&gt;&lt;b style=&quot;color: rgb(0, 0, 0); font-family: helvetica; font-size: 12px; font-style: normal; letter-spacing: normal; text-align: center; text-indent: 0px; text-transform: none; word-spacing: 0px; background-color: rgb(248, 249, 250);&quot;&gt;&lt;font color=&quot;#ff0080&quot;&gt;(***)&lt;/font&gt;&lt;/b&gt;" style="text;whiteSpace=wrap;html=1;" parent="WIyWlLk6GJQsqaUBKTNV-1" vertex="1">
          <mxGeometry x="142" y="918" width="81" height="30" as="geometry" />
        </mxCell>
      </root>
    </mxGraphModel>
  </diagram>
</mxfile>
